<?xml version="1.0" encoding="iso-8859-1"?>
<!-- Generator: Adobe Illustrator 16.0.0, SVG Export Plug-In . SVG Version: 6.00 Build 0)  -->
<!DOCTYPE svg PUBLIC "-//W3C//DTD SVG 1.1//EN" "http://www.w3.org/Graphics/SVG/1.1/DTD/svg11.dtd">
<svg version="1.1" xmlns="http://www.w3.org/2000/svg" xmlns:xlink="http://www.w3.org/1999/xlink" x="0px" y="0px" width="100px"
	 height="100px" viewBox="0 0 100 100" style="enable-background:new 0 0 100 100;" xml:space="preserve">
<g id="Layer_1" style="display:none;">
	<path style="display:inline;fill:#231F20;" d="M65.5,12.841l-15,15L38,15.341l-2.5-2.5l-2.5,2.5l-30,30l-2.5,2.5L3,50.341L38,85.34
		c6.893,6.893,18.107,6.893,25,0l10-9.998l27.5-27.501L65.5,12.841z M40.5,82.84l-35-35l30-30l12.5,12.5l-15,15
		c-4.108,4.108-4.085,10.816,0.05,14.951c4.136,4.135,10.842,4.158,14.95,0.049l5-5l7.5,7.502c5.523,5.521,5.523,14.477,0,19.998
		C54.978,88.363,46.022,88.363,40.5,82.84z M63,60.34l-7.501-7.498L62,46.34l-2.5-2.5l-14,14c-2.733,2.734-7.188,2.713-9.95-0.049
		s-2.783-7.216-0.05-9.951l30-30l30,30l-25,25l-2.509,2.51C68.748,70.027,67.085,64.426,63,60.34z"/>
</g>
<g id="Layer_2">
	<path style="fill:#231F20;" d="M90.078,20.229c-0.004-0.002-0.01-0.004-0.016-0.007c-0.035-0.019-0.074-0.032-0.109-0.049
		c-0.176-0.084-0.354-0.158-0.535-0.221c-0.072-0.025-0.148-0.046-0.223-0.068c-0.158-0.047-0.32-0.086-0.484-0.117
		c-0.072-0.014-0.145-0.029-0.219-0.04c-0.234-0.034-0.471-0.057-0.711-0.057H46.968c-3.547,0-6.282,1.948-8.653,5.459L22.854,1.943
		c-0.369-0.552-0.942-0.936-1.594-1.065c-0.652-0.13-1.328,0.005-1.879,0.376L1.139,13.493c-1.144,0.768-1.451,2.317-0.687,3.463
		l26.255,39.37c-2.425,7.682-5.147,15.701-8.278,22.094H4.968c-2.761,0-5,2.238-5,5c0,7.869,6.162,13.197,9.868,15.145
		c0.012,0.008,0.023,0.014,0.035,0.02c0.016,0.008,0.034,0.02,0.05,0.027c0.201,0.104,0.409,0.189,0.621,0.266
		c0.06,0.021,0.122,0.037,0.183,0.057c0.177,0.055,0.357,0.102,0.54,0.137c0.071,0.014,0.142,0.027,0.214,0.039
		c0.244,0.035,0.491,0.061,0.739,0.061h40.813c8.773,0,12.939-12.561,19.244-31.572c2.967-8.943,6.371-19.201,10.244-27.177h12.512
		c2.762,0,5-2.239,5-5C100.031,27.493,93.775,22.142,90.078,20.229z M20.084,6.803l26.667,39.99l-1.926,12.359l-12.16-2.902
		L5.995,16.256L20.084,6.803z M4.968,83.42h40.813c0,7,7.25,10.75,7.25,10.75H12.218C12.218,94.17,4.968,90.42,4.968,83.42z
		 M57.172,91.369c-0.457-0.676-1.08-1.246-1.844-1.641c-0.01-0.006-4.546-2.494-4.546-6.309c0-2.762-2.239-5-5-5H23.938
		c2.439-5.348,4.587-11.428,6.565-17.551c0.016,0.006,0.031,0.014,0.048,0.018l15.748,3.756c0.192,0.047,0.386,0.068,0.58,0.068
		c0.492,0,0.978-0.145,1.393-0.424c0.579-0.389,0.97-1.002,1.077-1.691l2.493-15.995c0.098-0.619-0.043-1.251-0.391-1.772
		L41.388,29.737c1.739-3.167,3.562-5.066,5.581-5.066h40.813C73.236,35.649,65.875,79.797,57.172,91.369z M85.211,35.42
		c1.77-2.931,3.631-5.285,5.584-6.759c0.354-0.268,0.652-0.583,0.918-0.922c1.703,1.8,3.318,4.374,3.318,7.681H85.211z"/>
</g>
</svg>
