<!DOCTYPE svg PUBLIC "-//W3C//DTD SVG 1.1//EN" "http://www.w3.org/Graphics/SVG/1.1/DTD/svg11.dtd"><svg xmlns="http://www.w3.org/2000/svg" width="20" height="15"><path d="M15.5 2h-11A2.503 2.503 0 002 4.5v6C2 11.879 3.122 13 4.5 13h11c1.378 0 2.5-1.121 2.5-2.5v-6C18 3.121 16.878 2 15.5 2zm0 1.2c.116 0 .221.038.328.066L10 6.91 4.17 3.267c.108-.029.213-.067.33-.067h11zm1.3 7.3c0 .717-.583 1.3-1.3 1.3h-11c-.717 0-1.3-.583-1.3-1.3v-6c0-.207.059-.396.145-.569L10 8.09l6.654-4.16c.086.174.146.363.146.57v6z" fill="#fff"/></svg>