<!DOCTYPE svg PUBLIC "-//W3C//DTD SVG 1.1//EN" "http://www.w3.org/Graphics/SVG/1.1/DTD/svg11.dtd"><svg xmlns="http://www.w3.org/2000/svg" width="20" height="15"><path d="M17.25 2H9.823L8.469.647l-.953.955a3.93 3.93 0 00-.613-.253V0H4.597v1.349a3.94 3.94 0 00-.614.253L3.031.647 1.398 2.279l.954.954a3.831 3.831 0 00-.252.613H.75v2.307h1.349c.068.213.151.417.253.613l-.955.952 1.631 1.631.953-.951c.196.102.4.186.615.254V10h.654v1a2 2 0 002 2h3.076L8.95 15h6.6l-1.376-2h3.076a2 2 0 002-2V4a2 2 0 00-2-2zM3.442 5a2.307 2.307 0 114.616 0 2.308 2.308 0 11-4.616 0zm14.808 6h-12v-1h.653V8.651c.214-.068.418-.152.613-.254l.954.954 1.632-1.633-.954-.951c.101-.196.185-.4.253-.614h1.349V3.846H9.4a3.792 3.792 0 00-.253-.614L9.38 3h7.87c.552 0 1 .449 1 1v7z" fill="#fff"/></svg>