<!DOCTYPE svg PUBLIC "-//W3C//DTD SVG 1.1//EN" "http://www.w3.org/Graphics/SVG/1.1/DTD/svg11.dtd"><svg xmlns="http://www.w3.org/2000/svg" width="20" height="15"><path d="M10 2.5c3.584 0 6.5 2.019 6.5 4.5s-2.916 4.5-6.5 4.5a9.104 9.104 0 01-1.618-.149.971.971 0 00-.814.226l-.98.55v-.458a.999.999 0 00-.508-1.099C4.465 9.712 3.5 8.378 3.5 7c0-2.481 2.916-4.5 6.5-4.5m0-1C5.857 1.5 2.5 3.964 2.5 7c0 1.834 1.229 3.454 3.111 4.453l-.023-.008v2.389l2.652-1.487-.035-.012c.576.103 1.175.165 1.795.165 4.142 0 7.5-2.464 7.5-5.5S14.142 1.5 10 1.5z" fill="#231f20"/></svg>