<!DOCTYPE svg PUBLIC "-//W3C//DTD SVG 1.1//EN" "http://www.w3.org/Graphics/SVG/1.1/DTD/svg11.dtd"><svg xmlns="http://www.w3.org/2000/svg" width="20" height="15"><path d="M16-61.875H4a2 2 0 00-2 2v7a2 2 0 002 2h4.076l-1.376 2h6.6l-1.376-2H16a2 2 0 002-2v-7a2 2 0 00-2-2zm1 8.5H3v-6.5c0-.551.449-1 1-1h12c.552 0 1 .449 1 1v6.5zM37.5-61.875h-5a2 2 0 00-2 2v9a2 2 0 002 2h5a2 2 0 002-2v-9a2 2 0 00-2-2zm-1 12h-3a.5.5 0 110-1h3a.5.5 0 010 1zm2-2h-7v-8c0-.551.449-1 1-1h5c.551 0 1 .449 1 1v8zM18-39.875h-2v-1a2 2 0 00-2-2H2a2 2 0 00-2 2v7a2 2 0 002 2h4.076l-1.376 2h6.6l-1.376-2H12v2a2 2 0 002 2h4a2 2 0 002-2v-8a2 2 0 00-2-2zm-6 2v3.5H1v-6.5c0-.551.449-1 1-1h12c.552 0 1 .449 1 1v1h-1a2 2 0 00-2 2zm5 9h-2a.5.5 0 010-1h2a.5.5 0 010 1zm2-2h-6v-7c0-.551.449-1 1-1h4c.552 0 1 .449 1 1v7z" fill="#231f20"/><g fill="#231f20"><path d="M38.601-39.375l3.601 4-3.601 3.999.9 1.001 4.499-5-4.499-5m-9.001 0l-4.5 5 4.5 5 .9-1.001-3.6-3.999 3.601-4-.901-1zM34.36-28.875H32.5l3.14-13h1.86z"/></g><path d="M13.5-20.375h-7a2 2 0 00-2 2v9a2 2 0 002 2h7a2 2 0 002-2v-9a2 2 0 00-2-2zm-3 12h-1a.5.5 0 110-1h1a.5.5 0 010 1zm4-2h-9v-8h9v8zM42.25-19.375h-7.427l-1.354-1.353-.953.954a3.879 3.879 0 00-.612-.253v-1.349h-2.307v1.349a3.89 3.89 0 00-.613.253l-.952-.954-1.633 1.632.954.954a3.699 3.699 0 00-.253.612h-1.35v2.307h1.349c.068.214.151.418.253.613l-.954.952 1.631 1.631.953-.951c.196.102.4.186.615.254v1.349h.653v1a2 2 0 002 2h3.076l-1.376 2h6.6l-1.376-2h3.076a2 2 0 002-2v-7a2 2 0 00-2-2zm-13.808 3c0-1.275 1.032-2.308 2.308-2.308s2.308 1.032 2.308 2.308-1.032 2.308-2.308 2.308-2.308-1.033-2.308-2.308zm14.808 6h-12v-1h.653v-1.349c.214-.068.418-.152.613-.254l.954.954 1.632-1.633-.954-.952c.101-.196.185-.4.253-.614h1.349v-2.307H34.4a3.745 3.745 0 00-.253-.613l.232-.232h7.87c.552 0 1 .449 1 1v7zM19 3.107L17.323.732a8.078 8.078 0 00-1.785 1.004A1.985 1.985 0 0014 1H4a2 2 0 00-2 2v7a2 2 0 002 2h3.076L5.7 14h6.6l-1.376-2H14a2 2 0 002-2V5.155a6.83 6.83 0 013-2.048zM15 9.5H3V3c0-.551.449-1 1-1h10c.322 0 .596.163.779.4-1.12 1.161-1.567 2.567-1.799 4.044-1.224-3.074-3.025-3.757-3.154-3.8l-1.16 2.417c.032.01 2.588.953 3.741 3.832l1.833-.009s.146-1.013.76-2.221V9.5z" fill="#231f20"/></svg>