<!DOCTYPE svg PUBLIC "-//W3C//DTD SVG 1.1//EN" "http://www.w3.org/Graphics/SVG/1.1/DTD/svg11.dtd"><svg xmlns="http://www.w3.org/2000/svg" width="200" height="80"><path d="M17.98 75.27H10V46.433h27.606c10.822 0 19.627-7.564 19.627-16.863 0-9.296-8.805-16.859-19.627-16.859H10V4.73h27.606c15.224 0 27.608 11.143 27.608 24.84 0 13.699-12.385 24.843-27.608 24.843H17.98V75.27z"/><path d="M100.005 75.27c-15.225 0-27.611-11.143-27.611-24.838V46.44h7.98v3.991c0 9.296 8.806 16.857 19.63 16.857 10.82 0 19.623-7.562 19.623-16.857V4.73h7.981v45.702c.001 13.695-12.381 24.838-27.603 24.838z" fill="#27aae1"/><path d="M72.394 4.73h7.98v39.259h-7.98zM162.388 75.27h-27.604v-7.98h27.604c10.825 0 19.632-7.562 19.632-16.857 0-9.299-8.807-16.864-19.632-16.864h-27.604V4.73h7.98v20.856h19.624c15.226 0 27.612 11.145 27.612 24.845 0 13.696-12.387 24.839-27.612 24.839z"/></svg>