<svg xmlns="http://www.w3.org/2000/svg" viewBox="0 0 30 16"><g fill="#06a"><path d="M27 0H3C1.35 0 0 1.35 0 3v10c0 1.65 1.35 3 3 3h24c1.65 0 3-1.35 3-3V3c0-1.65-1.35-3-3-3zM7.062 10.505H6.047l-2.02-3.268v3.268h-.94V5.494h.984l2.051 3.347V5.494h.94v5.011zm4.715-.599c-.44.457-1.028.686-1.764.686-.745 0-1.337-.228-1.777-.683-.44-.454-.66-1.081-.66-1.878 0-.51.076-.939.229-1.285.114-.255.27-.484.467-.687.197-.203.413-.354.648-.452A2.752 2.752 0 0110 5.409c.738 0 1.329.229 1.772.687.443.458.665 1.095.665 1.911 0 .809-.22 1.441-.66 1.899zm4.722-3.564h-1.483v4.163h-1.012V6.342h-1.487v-.848h3.981v.848zm1.285 4.163h-1.012V5.494h1.012v5.011zm4.051-.312c-.351.266-.795.398-1.332.398-.666 0-1.213-.228-1.641-.683-.428-.454-.643-1.075-.643-1.864 0-.834.215-1.481.646-1.943.43-.461.996-.692 1.698-.692.612 0 1.11.181 1.493.543.229.214.399.522.514.923l-1.002.239c-.059-.26-.184-.465-.371-.615s-.416-.226-.686-.226a1.14 1.14 0 00-.904.4c-.23.267-.346.698-.346 1.295 0 .634.113 1.085.342 1.354.228.269.523.403.889.403.269 0 .5-.086.693-.256.193-.172.332-.44.417-.807l.981.311c-.148.548-.398.954-.748 1.22zm5.078.312h-3.811V5.494h3.715v.848h-2.703v1.111h2.516v.844h-2.516v1.364h2.799v.844z"/><path d="M10.01 6.274c-.417 0-.753.143-1.008.429-.255.286-.383.717-.383 1.293 0 .567.131.997.393 1.29s.595.439.998.439.734-.146.993-.436c.259-.291.388-.727.388-1.308 0-.574-.126-1.002-.377-1.285-.252-.281-.587-.422-1.004-.422z"/></g></svg>