<svg xmlns="http://www.w3.org/2000/svg" width="1200" height="300"><path d="M63.795 111.081C74.469 97.3 75.306 85.414 75.306 85.414s3.904 8.555 6.755 19.548c2.558-2.501 4.314-3.991 4.314-3.991s-1.312 3.041.77 9.858c12.871-4.213 18.327-23.313 8.107-34.077-15.324-16.14-13.413-24.211-13.413-24.211s-1.468 1.743-3.544 4.606C73.53 46.748 68.16 38.919 68.16 38.919s1.912 17.5-13.412 37.333c-10.466 13.545-4.497 31.604 9.047 34.829zM247.813 71.303a2.5 2.5 0 00-3.26-1.367l-10.686 4.372s-3.749-7.413-3.908-7.583a1.489 1.489 0 00-.953-1.136l-2.571-.924 1.152-2.69a6.745 6.745 0 006.245-6.724 6.75 6.75 0 10-11.036 5.213l-1.075 2.508-13.741-1.304a2.5 2.5 0 00-2.476 2.344l-.833 13.333a2.5 2.5 0 004.99.312l.688-11.008 6.854.674-4.518 19.113c-.041.263-4.357 7.857-4.357 7.857l-14.211 5.368a2.5 2.5 0 001.766 4.678l15-5.666a2.497 2.497 0 001.235-1.012l4.884-7.793 2.504 1.327 3.925 6.248-1.253 13.153a2.5 2.5 0 004.978.475l1.332-14a2.494 2.494 0 00-.371-1.567l-3.828-6.093 3.919-15.248 2.222 4.453A2.501 2.501 0 00232.668 80c.315 0 13.778-5.436 13.778-5.436a2.498 2.498 0 001.367-3.261z" fill="#f7941e"/><path d="M252.333 109.834a2.5 2.5 0 01-2.5-2.5v-63.5h-47.999v37.083a2.5 2.5 0 11-5 0V41.333a2.5 2.5 0 012.5-2.5h52.999a2.5 2.5 0 012.5 2.5v66a2.5 2.5 0 01-2.5 2.501z" fill="#666"/><path d="M383.652 98.581c9.269-11.968 9.995-22.288 9.995-22.288s3.391 7.428 5.866 16.974c2.221-2.171 3.746-3.465 3.746-3.465s-1.139 2.641.668 8.561c11.177-3.659 15.915-20.244 7.04-29.591-13.307-14.015-11.647-21.024-11.647-21.024s-1.273 1.514-3.076 4c-4.138-9.03-8.801-15.828-8.801-15.828s1.66 15.196-11.646 32.419c-9.088 11.76-3.905 27.441 7.855 30.242z" fill="#f7941e"/><path d="M397 98.51V103h-45.25V76.25h15.791a25.308 25.308 0 011.448-5h-25.524L354.65 53h25.097a48.594 48.594 0 001.875-5H353.25a2.5 2.5 0 00-2.131 1.193l-14.25 23.25A2.5 2.5 0 00339 76.249h7.75v29.25a2.5 2.5 0 002.5 2.5h50.25a2.5 2.5 0 002.5-2.5v-3.298l-5-3.691z" fill="#666"/><g fill="#f7941e"><path d="M558.475 85.24l2.865-3.429a1.998 1.998 0 00.001-2.564l-2.866-3.431 2.866-3.43a2 2 0 00-.001-2.565l-3.938-4.711a2 2 0 10-3.068 2.565l2.865 3.428-2.866 3.43a2 2 0 000 2.564l2.866 3.431-2.865 3.429a1.998 1.998 0 00-.001 2.564l2.866 3.43-2.866 3.43a2 2 0 103.07 2.564l3.938-4.712a2 2 0 000-2.564l-2.866-3.429zM570.403 88.67l-2.866-3.43 2.865-3.429a1.998 1.998 0 00.001-2.564l-2.866-3.431 2.866-3.43a2 2 0 00-.001-2.565l-3.938-4.711a2 2 0 10-3.068 2.565l2.865 3.428-2.866 3.43a2 2 0 000 2.564l2.866 3.431-2.865 3.429a1.998 1.998 0 00-.001 2.564l2.866 3.43-2.866 3.43a2 2 0 103.07 2.564l3.938-4.712c.62-.741.62-1.821 0-2.563zM495.666 74.534l-2.865-3.43 2.865-3.428a1.999 1.999 0 10-3.068-2.565l-3.938 4.711a1.999 1.999 0 000 2.565l2.865 3.43-2.865 3.431a1.997 1.997 0 000 2.564l2.865 3.429-2.865 3.43a1.997 1.997 0 000 2.564l3.938 4.712c.395.474.963.718 1.535.718a1.999 1.999 0 001.533-3.282l-2.865-3.43 2.865-3.43a1.997 1.997 0 000-2.564l-2.865-3.429 2.865-3.431a1.999 1.999 0 000-2.565zM486.604 74.534l-2.865-3.43 2.865-3.428a1.999 1.999 0 10-3.068-2.565l-3.938 4.711a1.999 1.999 0 000 2.565l2.865 3.43-2.865 3.431a1.997 1.997 0 000 2.564l2.865 3.429-2.865 3.43a1.997 1.997 0 000 2.564l3.938 4.712c.395.474.963.718 1.535.718a1.999 1.999 0 001.533-3.282l-2.865-3.43 2.865-3.43a1.997 1.997 0 000-2.564l-2.865-3.429 2.865-3.431a1.999 1.999 0 000-2.565z"/></g><path d="M550.6 69.133l-7.716-15.161a2 2 0 00-1.782-1.093h-32.203c-.752 0-1.441.422-1.782 1.093l-7.833 15.392a1.999 1.999 0 001.782 2.908h4.354v22.851a2 2 0 002 2h35.162a2 2 0 002-2V72.271h4.374a2 2 0 001.644-3.138zm-12.683-.862l-1.801 4h4.465v20.851h-7.709l3.563-5.288-7.586-9.159 5.526-12.28-12.027 12.636L527.479 87l-6.75 6.121h-11.311v-20.85h13.84l3.808-4h-22.739l5.798-11.392h29.75l5.798 11.392h-7.756z" fill="#666"/><path d="M675 46c-7.192 21.217-18.699 28.289-18.699 42.675 0 13.426 9.109 19.658 18.699 19.658 9.591 0 18.7-6.232 18.7-19.658 0-14.386-11.508-21.458-18.7-42.675zm6.316 57.335a1.997 1.997 0 01-2.734-.723 1.999 1.999 0 01.723-2.734c3.759-2.188 5.999-6.156 6.476-11.475a1.999 1.999 0 113.984.358c-.59 6.57-3.59 11.746-8.449 14.574z" fill="#f7941e"/><g fill="#f7941e"><path d="M816 78.889l11.667-12.555v16.833l3.5-4.278h25.328c4.759-5.19 5.505-9.26 5.505-14.28 0-10.024-8.127-18.151-18.152-18.151-10.023 0-18.151 8.127-18.151 18.151 0-10.024-8.127-18.151-18.151-18.151-10.025 0-18.152 8.127-18.152 18.151 0 5.02.746 9.09 5.506 14.28H816z"/><path d="M864.334 82.588h-29.578l-11.06 9.545V76.8l-6.606 5.7H783.5v4h18.525c9.671 10.229 23.671 24.821 23.671 24.821s13.921-14.508 23.589-24.733h15.049v-4z"/></g><g><path d="M967.721 112.678l-3.941-.688c.332-1.93.346-5.307-.676-6.415-.188-.203-.471-.402-1.172-.341-4.132.365-9.759-.385-13.166-3.581-1.873-1.758-2.829-4.075-2.766-6.702.047-1.881.193-3.51.311-4.819.133-1.475.297-3.311.049-3.705.004.002-.092-.065-.43-.135-2.655-.546-4.458-1.197-5.236-2.751-.805-1.604-.089-3.131.74-4.898 1.08-2.304 2.56-5.459 2.318-10.802-.373-8.269 2.658-16.21 8.539-22.361 6.213-6.5 14.945-10.229 23.959-10.229 17.921 0 32.5 14.58 32.5 32.5 0 7.704-2.75 15.179-7.744 21.047-6.145 6.823-5.313 23.261-5.304 23.426l-3.994.223c-.041-.741-.934-18.264 6.288-26.283a28.472 28.472 0 006.754-18.412c0-15.715-12.785-28.5-28.5-28.5-7.926 0-15.605 3.278-21.068 8.993-5.117 5.354-7.758 12.25-7.434 19.417.285 6.329-1.579 10.305-2.693 12.681-.221.471-.479 1.023-.615 1.396.328.145.991.369 2.297.638 4.209.866 3.879 4.552 3.559 8.116-.119 1.316-.253 2.808-.295 4.559-.037 1.497.455 2.704 1.503 3.688 2.29 2.149 6.71 2.809 10.077 2.514 2.28-.205 3.689.77 4.471 1.62 2.76 3.001 1.788 9.116 1.669 9.804z" fill="#666"/><path d="M968.181 78.319c-6.372-3.323-13.644-2.95-18.333-2.166a28.006 28.006 0 01-1.249 3.624c2.399.83 3.651 2.41 4.276 4.196 7.078-.235 13.782 1.34 17.744 5.112 2.441 2.324 4.015 5.22 5.016 8.162-1.904-2.452-6.34-6.545-14.825-6.747-2.802-.067-5.349.003-7.526.252l-.001.006c-.114 1.28-1.532 6.158 2.186 6.844 2.411-.302 5.251-.589 8.548-.589 10.484 0 13.079 15.552 13.104 15.706l4.946-.043c-.002-22.759-8.915-31.765-13.886-34.357z" fill="#f7941e"/></g><g><path d="M1120 110.5h-20.125c-6.135 0-11.125-4.99-11.125-11.125s4.99-11.125 11.125-11.125h11.736l20.607-20.607 1.414-.586h20.125c6.135 0 11.125 4.99 11.125 11.125s-4.99 11.125-11.125 11.125h-11.735l-20.608 20.607-1.414.586zm-20.125-18.25c-3.929 0-7.125 3.196-7.125 7.125s3.196 7.125 7.125 7.125h19.297l20.608-20.607 1.414-.586h12.563a7.133 7.133 0 007.125-7.125c0-3.928-3.196-7.125-7.125-7.125h-19.297l-20.607 20.607-1.414.586h-12.564z" fill="#666"/><g fill="#f7941e"><path d="M1111.084 58.167A8.083 8.083 0 001103 66.25v18h6.954l9.213-9.212v-8.787a8.084 8.084 0 00-8.083-8.084z"/><circle cx="1111.084" cy="47.75" r="8.083"/></g></g><g><path d="M63.795 261.081c10.674-13.781 11.511-25.667 11.511-25.667s3.904 8.555 6.755 19.548c2.558-2.501 4.314-3.991 4.314-3.991s-1.312 3.041.77 9.858c12.871-4.213 18.327-23.313 8.107-34.077-15.324-16.141-13.413-24.211-13.413-24.211s-1.468 1.742-3.544 4.605c-4.765-10.398-10.135-18.228-10.135-18.228s1.912 17.5-13.412 37.333c-10.466 13.546-4.497 31.605 9.047 34.83zM247.813 221.303a2.5 2.5 0 00-3.26-1.367l-10.686 4.372s-3.749-7.413-3.908-7.583a1.49 1.49 0 00-.953-1.137l-2.571-.924 1.152-2.69a6.745 6.745 0 006.245-6.724 6.749 6.749 0 10-11.036 5.213l-1.075 2.508-13.741-1.305a2.5 2.5 0 00-2.476 2.345l-.833 13.333a2.5 2.5 0 004.99.312l.688-11.008 6.854.674-4.518 19.113c-.041.263-4.357 7.857-4.357 7.857l-14.211 5.368a2.5 2.5 0 001.766 4.678l15-5.666a2.497 2.497 0 001.235-1.012l4.884-7.793 2.504 1.327 3.925 6.248-1.253 13.153a2.5 2.5 0 004.978.475l1.332-14a2.494 2.494 0 00-.371-1.567l-3.828-6.093 3.919-15.248 2.222 4.453a2.501 2.501 0 002.238 1.384c.315 0 13.778-5.436 13.778-5.436a2.497 2.497 0 001.367-3.26z" fill="#f15a29"/><path d="M252.333 259.834a2.5 2.5 0 01-2.5-2.5v-63.5h-47.999v37.083a2.5 2.5 0 11-5 0v-39.583a2.5 2.5 0 012.5-2.5h52.999a2.5 2.5 0 012.5 2.5v66a2.5 2.5 0 01-2.5 2.5z" fill="#666"/><path d="M383.652 248.581c9.269-11.968 9.995-22.288 9.995-22.288s3.391 7.428 5.866 16.974c2.221-2.171 3.746-3.465 3.746-3.465s-1.139 2.641.668 8.561c11.177-3.659 15.915-20.244 7.04-29.591-13.307-14.016-11.647-21.024-11.647-21.024s-1.273 1.514-3.076 3.999c-4.138-9.029-8.801-15.827-8.801-15.827s1.66 15.196-11.646 32.419c-9.088 11.76-3.905 27.441 7.855 30.242z" fill="#f15a29"/><path d="M397 248.51V253h-45.25v-26.75h15.791a25.308 25.308 0 011.448-5h-25.524L354.65 203h25.097a48.594 48.594 0 001.875-5H353.25a2.5 2.5 0 00-2.131 1.193l-14.25 23.25a2.5 2.5 0 002.131 3.806h7.75v29.25a2.5 2.5 0 002.5 2.5h50.25a2.5 2.5 0 002.5-2.5v-3.298l-5-3.691z" fill="#666"/><g fill="#f15a29"><path d="M558.475 235.24l2.865-3.429a1.998 1.998 0 00.001-2.564l-2.866-3.431 2.866-3.43c.62-.742.62-1.822-.001-2.564l-3.938-4.711a1.998 1.998 0 00-2.816-.252 1.998 1.998 0 00-.252 2.816l2.865 3.429-2.866 3.43a2 2 0 000 2.564l2.866 3.431-2.865 3.429a1.998 1.998 0 00-.001 2.564l2.866 3.43-2.866 3.43a2 2 0 103.07 2.564l3.938-4.712a2 2 0 000-2.564l-2.866-3.43zM570.403 238.67l-2.866-3.43 2.865-3.429a1.998 1.998 0 00.001-2.564l-2.866-3.431 2.866-3.43c.62-.742.62-1.822-.001-2.564l-3.938-4.711a1.998 1.998 0 00-2.816-.252 1.998 1.998 0 00-.252 2.816l2.865 3.429-2.866 3.43a2 2 0 000 2.564l2.866 3.431-2.865 3.429a1.998 1.998 0 00-.001 2.564l2.866 3.43-2.866 3.43a2 2 0 103.07 2.564l3.938-4.712a2 2 0 000-2.564zM495.666 224.534l-2.865-3.43 2.865-3.429a2 2 0 00-3.068-2.564l-3.938 4.711a1.997 1.997 0 000 2.564l2.865 3.43-2.865 3.431a1.997 1.997 0 000 2.564l2.865 3.429-2.865 3.43a1.997 1.997 0 000 2.564l3.938 4.712c.395.474.963.718 1.535.718a1.999 1.999 0 001.533-3.282l-2.865-3.43 2.865-3.43a1.997 1.997 0 000-2.564l-2.865-3.429 2.865-3.431a1.997 1.997 0 000-2.564zM486.604 224.534l-2.865-3.43 2.865-3.429a2 2 0 00-3.068-2.564l-3.938 4.711a1.997 1.997 0 000 2.564l2.865 3.43-2.865 3.431a1.997 1.997 0 000 2.564l2.865 3.429-2.865 3.43a1.997 1.997 0 000 2.564l3.938 4.712c.395.474.963.718 1.535.718a1.999 1.999 0 001.533-3.282l-2.865-3.43 2.865-3.43a1.997 1.997 0 000-2.564l-2.865-3.429 2.865-3.431a1.997 1.997 0 000-2.564z"/></g><path d="M550.6 219.133l-7.716-15.161a1.999 1.999 0 00-1.782-1.093h-32.203c-.752 0-1.441.422-1.782 1.093l-7.833 15.392a1.999 1.999 0 001.782 2.907h4.354v22.851a2 2 0 002 2h35.162a2 2 0 002-2v-22.851h4.354a2 2 0 001.664-3.138zm-12.683-.862l-1.801 4h4.465v20.851h-7.709l3.563-5.288-7.586-9.159 5.526-12.28-12.027 12.636 5.132 7.971-6.75 6.121h-11.311v-20.851h13.84l3.808-4h-22.739l5.798-11.392h29.75l5.798 11.392h-7.757z" fill="#666"/><path d="M675 196c-7.192 21.217-18.699 28.289-18.699 42.675 0 13.426 9.109 19.658 18.699 19.658 9.591 0 18.7-6.232 18.7-19.658 0-14.386-11.508-21.458-18.7-42.675zm6.316 57.335a1.997 1.997 0 01-2.734-.723 1.999 1.999 0 01.723-2.734c3.759-2.188 5.999-6.156 6.476-11.475a1.999 1.999 0 113.984.358c-.59 6.57-3.59 11.746-8.449 14.574z" fill="#f15a29"/><g fill="#f15a29"><path d="M816 228.889l11.667-12.555v16.833l3.5-4.278h25.328c4.759-5.189 5.505-9.26 5.505-14.28 0-10.024-8.127-18.151-18.152-18.151-10.023 0-18.151 8.127-18.151 18.151 0-10.024-8.127-18.151-18.151-18.151-10.025 0-18.152 8.127-18.152 18.151 0 5.021.746 9.091 5.506 14.28H816z"/><path d="M864.334 232.588h-29.578l-11.06 9.545V226.8l-6.606 5.7H783.5v4h18.525c9.671 10.229 23.671 24.821 23.671 24.821s13.921-14.508 23.589-24.733h15.049v-4z"/></g><path d="M967.721 262.678l-3.941-.688c.332-1.93.346-5.307-.676-6.415-.188-.203-.471-.402-1.172-.341-4.132.365-9.759-.385-13.166-3.581-1.873-1.758-2.829-4.075-2.766-6.702.047-1.881.193-3.51.311-4.819.133-1.475.297-3.311.049-3.705.004.002-.092-.065-.43-.135-2.655-.546-4.458-1.197-5.236-2.751-.805-1.604-.089-3.131.74-4.898 1.08-2.304 2.56-5.459 2.318-10.803-.373-8.268 2.658-16.209 8.539-22.361 6.213-6.5 14.945-10.229 23.959-10.229 17.921 0 32.5 14.58 32.5 32.5 0 7.704-2.75 15.179-7.744 21.047-6.145 6.823-5.313 23.261-5.304 23.426l-3.994.223c-.041-.741-.934-18.264 6.288-26.283a28.472 28.472 0 006.754-18.412c0-15.715-12.785-28.5-28.5-28.5-7.926 0-15.605 3.277-21.068 8.992-5.117 5.355-7.758 12.25-7.434 19.418.285 6.328-1.579 10.305-2.693 12.681-.221.471-.479 1.023-.615 1.396.328.145.991.369 2.297.638 4.209.866 3.879 4.552 3.559 8.116-.119 1.316-.253 2.808-.295 4.559-.037 1.497.455 2.704 1.503 3.688 2.29 2.149 6.71 2.809 10.077 2.514 2.28-.205 3.689.77 4.471 1.62 2.76 3.002 1.788 9.117 1.669 9.805z" fill="#666"/><path d="M968.181 228.319c-6.372-3.323-13.644-2.95-18.333-2.166a28.006 28.006 0 01-1.249 3.624c2.399.83 3.651 2.41 4.276 4.196 7.078-.235 13.782 1.34 17.744 5.112 2.441 2.324 4.015 5.22 5.016 8.162-1.904-2.452-6.34-6.545-14.825-6.747-2.802-.067-5.349.003-7.526.252l-.001.006c-.114 1.28-1.532 6.158 2.186 6.844 2.411-.302 5.251-.589 8.548-.589 10.484 0 13.079 15.552 13.104 15.706l4.946-.043c-.002-22.759-8.915-31.765-13.886-34.357z" fill="#f15a29"/><path d="M1120 260.5h-20.125c-6.135 0-11.125-4.99-11.125-11.125s4.99-11.125 11.125-11.125h11.736l20.607-20.607 1.414-.586h20.125c6.135 0 11.125 4.99 11.125 11.125s-4.99 11.125-11.125 11.125h-11.735l-20.608 20.607-1.414.586zm-20.125-18.25c-3.929 0-7.125 3.196-7.125 7.125s3.196 7.125 7.125 7.125h19.297l20.608-20.607 1.414-.586h12.563a7.133 7.133 0 007.125-7.125c0-3.928-3.196-7.125-7.125-7.125h-19.297l-20.607 20.607-1.414.586h-12.564z" fill="#666"/><g fill="#f15a29"><path d="M1111.084 208.168a8.083 8.083 0 00-8.084 8.083v17.999h6.954l9.213-9.213v-8.786a8.083 8.083 0 00-8.083-8.083z"/><circle cx="1111.084" cy="197.75" r="8.083"/></g></g></svg>