<svg xmlns="http://www.w3.org/2000/svg" width="150" height="150"><circle cx="75" cy="75" r="55" fill="#f4f4f4"/><path d="M97.813 71.303a2.5 2.5 0 00-3.26-1.367l-10.686 4.372s-3.749-7.413-3.908-7.583a1.489 1.489 0 00-.953-1.136l-2.571-.924 1.152-2.69a6.745 6.745 0 006.245-6.724 6.75 6.75 0 10-11.037 5.213l-1.075 2.508-13.741-1.304a2.5 2.5 0 00-2.476 2.344l-.833 13.333a2.5 2.5 0 002.339 2.651c.055.002.108.004.16.004a2.5 2.5 0 002.493-2.344l.688-11.008 6.853.674-4.518 19.113c-.041.263-4.356 7.857-4.356 7.857L44.117 99.66a2.502 2.502 0 00-1.456 3.223 2.502 2.502 0 003.222 1.455l15-5.666a2.5 2.5 0 001.235-1.012l4.884-7.793 2.503 1.327 3.925 6.248-1.252 13.153a2.5 2.5 0 004.978.475l1.332-14a2.494 2.494 0 00-.371-1.567l-3.828-6.093 3.918-15.248 2.222 4.453A2.502 2.502 0 0082.668 80c.315 0 13.778-5.436 13.778-5.436a2.498 2.498 0 001.367-3.261z" fill="#f15a29"/><path d="M102.333 109.834a2.5 2.5 0 01-2.5-2.5v-63.5h-48v37.083a2.5 2.5 0 11-5 0V41.333a2.5 2.5 0 012.5-2.5h53a2.5 2.5 0 012.5 2.5v66a2.5 2.5 0 01-2.5 2.501z" fill="#666"/></svg>