<?xml version="1.0" encoding="iso-8859-1"?>
<!-- Generator: Adobe Illustrator 16.0.0, SVG Export Plug-In . SVG Version: 6.00 Build 0)  -->
<!DOCTYPE svg PUBLIC "-//W3C//DTD SVG 1.1//EN" "http://www.w3.org/Graphics/SVG/1.1/DTD/svg11.dtd">
<svg version="1.1" xmlns="http://www.w3.org/2000/svg" xmlns:xlink="http://www.w3.org/1999/xlink" x="0px" y="0px" width="150px"
	 height="150px" viewBox="0 0 150 150" style="enable-background:new 0 0 150 150;" xml:space="preserve">
<g id="&#xC6D0;">
	<circle style="fill:#F4F4F4;" cx="75" cy="75" r="55"/>
</g>
<g id="&#xBD88;&#xC774;&#xB0AC;&#xC744;&#xB54C;" style="display:none;">
	<path style="display:inline;fill:#F15A29;" d="M63.795,111.081C74.469,97.3,75.306,85.414,75.306,85.414s3.904,8.555,6.755,19.548
		c2.558-2.501,4.314-3.991,4.314-3.991s-1.312,3.041,0.77,9.858c12.871-4.213,18.327-23.313,8.107-34.077
		c-15.324-16.14-13.413-24.211-13.413-24.211s-1.468,1.743-3.544,4.606C73.53,46.748,68.16,38.919,68.16,38.919
		s1.912,17.5-13.412,37.333C44.282,89.797,50.251,107.856,63.795,111.081z"/>
</g>
<g id="&#xC5F0;&#xAE30;&#xC18D;&#xB300;&#xD53C;">
	<g>
		<path style="fill:#F15A29;" d="M97.813,71.303c-0.522-1.278-1.983-1.89-3.26-1.367l-10.686,4.372c0,0-3.749-7.413-3.908-7.583
			c-0.097-0.507-0.438-0.951-0.953-1.136l-2.571-0.924l1.152-2.69c3.492-0.259,6.245-3.167,6.245-6.724
			c0-3.727-3.021-6.75-6.749-6.75c-3.728,0-6.75,3.022-6.75,6.75c0,2.099,0.959,3.975,2.462,5.213l-1.075,2.508l-13.741-1.304
			c-1.313,0.01-2.394,1.034-2.476,2.344l-0.833,13.333c-0.086,1.378,0.961,2.565,2.339,2.651C57.064,79.998,57.117,80,57.169,80
			c1.31,0,2.41-1.02,2.493-2.344l0.688-11.008l6.853,0.674l-4.518,19.113c-0.041,0.263-4.356,7.857-4.356,7.857l-14.212,5.368
			c-1.292,0.488-1.943,1.931-1.456,3.223c0.489,1.291,1.932,1.942,3.222,1.455l15-5.666c0.511-0.193,0.945-0.549,1.235-1.012
			l4.884-7.793l2.503,1.327l3.925,6.248l-1.252,13.153c-0.131,1.375,0.877,2.595,2.252,2.726c0.081,0.008,0.161,0.012,0.24,0.012
			c1.274,0,2.363-0.969,2.486-2.263l1.332-14c0.053-0.55-0.078-1.101-0.371-1.567l-3.828-6.093l3.918-15.248l2.222,4.453
			C80.865,79.488,81.746,80,82.668,80c0.315,0,13.778-5.436,13.778-5.436C97.725,74.041,98.337,72.582,97.813,71.303z"/>
		<path style="fill:#666666;" d="M102.333,109.834c-1.381,0-2.5-1.119-2.5-2.5v-63.5h-48v37.083c0,1.381-1.119,2.5-2.5,2.5
			s-2.5-1.119-2.5-2.5V41.333c0-1.381,1.119-2.5,2.5-2.5h53c1.381,0,2.5,1.119,2.5,2.5v66
			C104.833,108.715,103.714,109.834,102.333,109.834z"/>
	</g>
</g>
<g id="&#xD654;&#xC7AC;&#xAC74;&#xBB3C;" style="display:none;">
	<g style="display:inline;">
		<path style="fill:#F15A29;" d="M83.652,98.581c9.269-11.968,9.995-22.288,9.995-22.288s3.391,7.428,5.866,16.974
			c2.221-2.171,3.746-3.465,3.746-3.465s-1.139,2.641,0.668,8.561c11.177-3.659,15.915-20.244,7.04-29.591
			C97.661,54.756,99.32,47.747,99.32,47.747s-1.273,1.514-3.076,4c-4.138-9.03-8.801-15.828-8.801-15.828s1.66,15.196-11.647,32.419
			C66.708,80.099,71.892,95.78,83.652,98.581z"/>
		<path style="fill:#666666;" d="M97,98.51V103H51.75V76.25h15.791c0.301-1.695,0.792-3.369,1.448-5H43.464L54.65,53h25.097
			c0.77-1.758,1.385-3.432,1.875-5H53.25c-0.87,0-1.677,0.452-2.131,1.193l-14.25,23.25c-0.473,0.771-0.492,1.738-0.05,2.528
			c0.442,0.789,1.276,1.278,2.181,1.278h7.75v29.25c0,1.381,1.119,2.5,2.5,2.5H99.5c1.381,0,2.5-1.119,2.5-2.5v-3.298L97,98.51z"/>
	</g>
</g>
<g id="&#xC9C0;&#xC9C4;" style="display:none;">
	<g style="display:inline;">
		<path style="fill:#F15A29;" d="M108.475,85.24l2.865-3.429c0.621-0.742,0.621-1.822,0.001-2.564l-2.866-3.431l2.866-3.43
			c0.62-0.742,0.62-1.822-0.001-2.565l-3.938-4.711c-0.708-0.847-1.969-0.96-2.816-0.252c-0.848,0.708-0.961,1.97-0.252,2.817
			l2.865,3.428l-2.866,3.43c-0.62,0.742-0.62,1.822,0,2.564l2.866,3.431l-2.865,3.429c-0.621,0.742-0.621,1.822-0.001,2.564
			l2.866,3.43l-2.866,3.43c-0.708,0.848-0.595,2.108,0.253,2.817c0.374,0.313,0.829,0.465,1.281,0.465
			c0.572,0,1.14-0.244,1.536-0.718l3.938-4.712c0.62-0.742,0.62-1.822,0-2.564L108.475,85.24z"/>
		<path style="fill:#F15A29;" d="M120.403,88.67l-2.866-3.43l2.865-3.429c0.621-0.742,0.621-1.822,0.001-2.564l-2.866-3.431
			l2.866-3.43c0.62-0.742,0.62-1.822-0.001-2.565l-3.938-4.711c-0.708-0.847-1.969-0.96-2.816-0.252
			c-0.848,0.708-0.961,1.97-0.252,2.817l2.865,3.428l-2.866,3.43c-0.62,0.742-0.62,1.822,0,2.564l2.866,3.431l-2.865,3.429
			c-0.621,0.742-0.621,1.822-0.001,2.564l2.866,3.43l-2.866,3.43c-0.708,0.848-0.595,2.108,0.253,2.817
			c0.374,0.313,0.829,0.465,1.281,0.465c0.572,0,1.14-0.244,1.536-0.718l3.938-4.712C121.023,90.492,121.023,89.412,120.403,88.67z"
			/>
		<path style="fill:#F15A29;" d="M45.667,74.534l-2.866-3.43l2.866-3.428c0.708-0.848,0.596-2.109-0.252-2.817
			c-0.847-0.707-2.108-0.596-2.817,0.252l-3.938,4.711c-0.621,0.743-0.621,1.823,0,2.565l2.866,3.43l-2.866,3.431
			c-0.621,0.742-0.621,1.822,0,2.564l2.866,3.429l-2.866,3.43c-0.621,0.742-0.621,1.822,0,2.564l3.938,4.712
			c0.396,0.474,0.963,0.718,1.536,0.718c0.452,0,0.907-0.152,1.281-0.465c0.848-0.709,0.961-1.97,0.252-2.817l-2.866-3.43
			l2.866-3.43c0.621-0.742,0.621-1.822,0-2.564l-2.866-3.429l2.866-3.431C46.287,76.356,46.287,75.276,45.667,74.534z"/>
		<path style="fill:#F15A29;" d="M36.604,74.534l-2.866-3.43l2.866-3.428c0.708-0.848,0.596-2.109-0.252-2.817
			c-0.847-0.707-2.108-0.596-2.817,0.252l-3.938,4.711c-0.621,0.743-0.621,1.823,0,2.565l2.866,3.43l-2.866,3.431
			c-0.621,0.742-0.621,1.822,0,2.564l2.866,3.429l-2.866,3.43c-0.621,0.742-0.621,1.822,0,2.564l3.938,4.712
			c0.396,0.474,0.963,0.718,1.536,0.718c0.452,0,0.907-0.152,1.281-0.465c0.848-0.709,0.961-1.97,0.252-2.817l-2.866-3.43
			l2.866-3.43c0.621-0.742,0.621-1.822,0-2.564l-2.866-3.429l2.866-3.431C37.225,76.356,37.225,75.276,36.604,74.534z"/>
	</g>
	<path style="display:inline;fill:#666666;" d="M100.6,69.133l-7.716-15.161c-0.341-0.67-1.03-1.093-1.782-1.093H58.898
		c-0.752,0-1.441,0.422-1.782,1.093l-7.833,15.392c-0.316,0.62-0.287,1.359,0.077,1.953s1.009,0.955,1.705,0.955h4.354v22.851
		c0,1.104,0.896,2,2,2h35.162c1.104,0,2-0.896,2-2V72.271h4.354c0.008,0.001,0.016,0,0.02,0c1.105,0,2-0.896,2-2
		C100.954,69.848,100.823,69.456,100.6,69.133z M87.917,68.271l-1.801,4h4.465v20.851h-7.709l3.563-5.288l-7.586-9.159l5.526-12.28
		L72.348,79.029L77.479,87l-6.75,6.121H59.419V72.271h13.84l3.808-4H54.327l5.797-11.392h29.75l5.798,11.392H87.917z"/>
</g>
<g id="&#xCD9C;&#xD608;" style="display:none;">
	<path style="display:inline;fill:#F15A29;" d="M75,46c-7.192,21.217-18.7,28.289-18.7,42.675c0,13.426,9.11,19.658,18.7,19.658
		c9.591,0,18.7-6.232,18.7-19.658C93.7,74.289,82.192,67.217,75,46z M81.316,103.335c-0.316,0.185-0.662,0.271-1.004,0.271
		c-0.688,0-1.359-0.355-1.73-0.994c-0.556-0.954-0.232-2.179,0.723-2.734c3.759-2.188,5.999-6.156,6.476-11.475
		c0.099-1.1,1.068-1.904,2.171-1.813c1.101,0.099,1.912,1.07,1.813,2.171C89.175,95.331,86.175,100.507,81.316,103.335z"/>
</g>
<g id="&#xC2EC;&#xD3D0;&#xC18C;&#xC0DD;" style="display:none;">
	<g style="display:inline;">
		<path style="fill:#F15A29;" d="M66,78.889l11.667-12.555v16.833l3.5-4.278h25.328c4.759-5.19,5.505-9.26,5.505-14.28
			c0-10.024-8.127-18.151-18.152-18.151c-10.023,0-18.151,8.127-18.151,18.151c0-10.024-8.127-18.151-18.151-18.151
			c-10.025,0-18.152,8.127-18.152,18.151c0,5.02,0.746,9.09,5.505,14.28H66z"/>
		<path style="fill:#F15A29;" d="M114.334,82.588H84.756l-11.06,9.545V76.8l-6.606,5.7H33.5v4h18.525
			c9.671,10.229,23.671,24.821,23.671,24.821s13.921-14.508,23.589-24.733h15.049V82.588z"/>
	</g>
</g>
<g id="&#xAE30;&#xB3C4;&#xD3D0;&#xC1C4;" style="display:none;">
	<g style="display:inline;">
		<path style="fill:#666666;" d="M67.72,112.678l-3.94-0.688c0.331-1.93,0.345-5.307-0.676-6.415
			c-0.188-0.203-0.472-0.402-1.173-0.341c-4.131,0.365-9.758-0.385-13.165-3.581c-1.874-1.758-2.83-4.075-2.766-6.702
			c0.046-1.881,0.192-3.51,0.31-4.819c0.132-1.475,0.297-3.311,0.048-3.705c0.004,0.002-0.091-0.065-0.429-0.135
			c-2.656-0.546-4.458-1.197-5.237-2.751c-0.804-1.604-0.088-3.131,0.74-4.898c1.081-2.304,2.56-5.459,2.319-10.802
			c-0.374-8.269,2.659-16.21,8.539-22.361c6.214-6.5,14.946-10.229,23.959-10.229c17.921,0,32.5,14.58,32.5,32.5
			c0,7.704-2.75,15.179-7.744,21.047c-6.145,6.823-5.313,23.261-5.304,23.426l-3.994,0.223c-0.041-0.741-0.934-18.264,6.288-26.283
			c4.342-5.104,6.754-11.657,6.754-18.412c0-15.715-12.785-28.5-28.5-28.5c-7.926,0-15.605,3.278-21.068,8.993
			c-5.118,5.354-7.758,12.25-7.434,19.417c0.286,6.329-1.579,10.305-2.693,12.681c-0.22,0.471-0.479,1.023-0.615,1.396
			c0.328,0.145,0.991,0.369,2.296,0.638c4.209,0.866,3.878,4.552,3.558,8.116c-0.118,1.316-0.252,2.808-0.295,4.559
			c-0.037,1.497,0.455,2.704,1.503,3.688c2.29,2.149,6.71,2.809,10.077,2.514c2.281-0.205,3.689,0.77,4.471,1.62
			C68.812,105.875,67.84,111.99,67.72,112.678z"/>
		<path style="fill:#F15A29;" d="M68.181,78.319c-6.373-3.323-13.643-2.95-18.333-2.166c-0.379,1.411-0.825,2.617-1.249,3.624
			c2.399,0.83,3.651,2.41,4.277,4.196c7.078-0.235,13.782,1.34,17.744,5.112c2.442,2.324,4.015,5.22,5.016,8.162
			c-1.904-2.452-6.34-6.545-14.826-6.747c-2.801-0.067-5.349,0.003-7.527,0.252c0,0.002,0,0.004,0,0.006
			c-0.115,1.28-1.532,6.158,2.186,6.844c2.412-0.302,5.25-0.589,8.548-0.589c10.484,0,13.079,15.552,13.104,15.706l4.946-0.043
			C82.065,89.917,73.152,80.911,68.181,78.319z"/>
	</g>
</g>
<g id="Layer_8" style="display:none;">
	<path style="display:inline;fill:#666666;" d="M70,110.5H49.875c-6.134,0-11.125-4.99-11.125-11.125S43.741,88.25,49.875,88.25
		h11.736l20.608-20.607l1.414-0.586h20.125c6.135,0,11.125,4.99,11.125,11.125c0,6.135-4.99,11.125-11.125,11.125H92.022
		l-20.608,20.607L70,110.5z M49.875,92.25c-3.929,0-7.125,3.196-7.125,7.125s3.196,7.125,7.125,7.125h19.296L89.78,85.893
		l1.414-0.586h12.563c3.929,0,7.125-3.196,7.125-7.125c0-3.928-3.196-7.125-7.125-7.125H84.461L63.854,91.664l-1.414,0.586H49.875z"
		/>
	<g style="display:inline;">
		<path style="fill:#F15A29;" d="M61.084,58.167c-4.464,0-8.083,3.619-8.083,8.083V84.25h6.954l9.213-9.212v-8.787
			C69.167,61.787,65.548,58.167,61.084,58.167z"/>
		<circle style="fill:#F15A29;" cx="61.084" cy="47.75" r="8.083"/>
	</g>
</g>
</svg>
